<svg xmlns="http://www.w3.org/2000/svg" viewBox="0 0 128 128" fill="none">
  <defs>
    <radialGradient id="glow128" cx="50%" cy="50%" r="50%">
      <stop offset="0%" stop-color="#ff4e4e" stop-opacity="0.3"/>
      <stop offset="100%" stop-color="#ff4e4e" stop-opacity="0"/>
    </radialGradient>
    <linearGradient id="bg128" x1="0%" y1="0%" x2="100%" y2="100%">
      <stop offset="0%" stop-color="#1e1e2e"/>
      <stop offset="100%" stop-color="#0f0f13"/>
    </linearGradient>
    <linearGradient id="iris128" x1="0%" y1="0%" x2="100%" y2="100%">
      <stop offset="0%" stop-color="#ff6b6b"/>
      <stop offset="100%" stop-color="#cc2a2a"/>
    </linearGradient>
    <filter id="shadow128" x="-20%" y="-20%" width="140%" height="140%">
      <feDropShadow dx="0" dy="0" stdDeviation="6" flood-color="#ff4e4e" flood-opacity="0.4"/>
    </filter>
  </defs>

  <!-- Background -->
  <rect width="128" height="128" rx="28" fill="url(#bg128)"/>
  <rect x="2" y="2" width="124" height="124" rx="26" stroke="#ff4e4e" stroke-width="1.5" fill="none" opacity="0.2"/>

  <!-- Subtle grid lines -->
  <line x1="64" y1="0" x2="64" y2="128" stroke="white" stroke-width="0.5" opacity="0.03"/>
  <line x1="0" y1="64" x2="128" y2="64" stroke="white" stroke-width="0.5" opacity="0.03"/>

  <!-- Outer glow -->
  <circle cx="64" cy="64" r="52" fill="url(#glow128)"/>

  <!-- Corner brackets – thick -->
  <path d="M18 40V18h22"  stroke="#ff4e4e" stroke-width="5" stroke-linecap="round" stroke-linejoin="round"/>
  <path d="M88 18h22v22" stroke="#ff4e4e" stroke-width="5" stroke-linecap="round" stroke-linejoin="round"/>
  <path d="M110 88v22H88" stroke="#ff4e4e" stroke-width="5" stroke-linecap="round" stroke-linejoin="round"/>
  <path d="M40 110H18V88"  stroke="#ff4e4e" stroke-width="5" stroke-linecap="round" stroke-linejoin="round"/>

  <!-- Inner brackets (decorative) -->
  <path d="M30 52V34h18"  stroke="#ff4e4e" stroke-width="2" stroke-linecap="round" stroke-linejoin="round" opacity="0.3"/>
  <path d="M80 34h18v18" stroke="#ff4e4e" stroke-width="2" stroke-linecap="round" stroke-linejoin="round" opacity="0.3"/>
  <path d="M98 76v18H80" stroke="#ff4e4e" stroke-width="2" stroke-linecap="round" stroke-linejoin="round" opacity="0.3"/>
  <path d="M48 94H30V76"  stroke="#ff4e4e" stroke-width="2" stroke-linecap="round" stroke-linejoin="round" opacity="0.3"/>

  <!-- Eye path -->
  <path d="M22 64c9-18 20-24 42-24s33 6 42 24c-9 18-20 24-42 24s-33-6-42-24z"
        fill="#ff4e4e" opacity="0.1" stroke="#ff4e4e" stroke-width="2.5"/>

  <!-- Iris -->
  <circle cx="64" cy="64" r="16" fill="url(#iris128)" filter="url(#shadow128)"/>
  <!-- Pupil -->
  <circle cx="64" cy="64" r="7" fill="#0d0d15"/>
  <!-- Inner reflection ring -->
  <circle cx="64" cy="64" r="10" fill="none" stroke="white" stroke-width="0.5" opacity="0.2"/>
  <!-- Specular highlights -->
  <circle cx="70" cy="58" r="3.5" fill="white" opacity="0.55"/>
  <circle cx="57" cy="70" r="1.5" fill="white" opacity="0.2"/>

  <!-- Green checkmark / focus-confirmed badge -->
  <circle cx="96" cy="96" r="14" fill="#0d0d15" stroke="#34d399" stroke-width="2"/>
  <path d="M89 96l4.5 4.5 9-9" stroke="#34d399" stroke-width="2.5"
        stroke-linecap="round" stroke-linejoin="round"/>
</svg>
