<svg xmlns="http://www.w3.org/2000/svg" xmlns:xlink="http://www.w3.org/1999/xlink" width="128" zoomAndPan="magnify" viewBox="0 0 96 95.999999" height="128" preserveAspectRatio="xMidYMid meet" version="1.0"><defs><clipPath id="8c4607c7e0"><path d="M 0 1.832031 L 93 1.832031 L 93 94.082031 L 0 94.082031 Z M 0 1.832031 " clip-rule="nonzero"/></clipPath></defs><rect x="-9.6" width="115.2" fill="#ffffff" y="-9.6" height="115.199999" fill-opacity="1"/><rect x="-9.6" width="115.2" fill="#ffffff" y="-9.6" height="115.199999" fill-opacity="1"/><g clip-path="url(#8c4607c7e0)"><path fill="#ff3131" d="M 80.945312 28.265625 C 70.699219 18.019531 55.734375 14.394531 41.886719 18.8125 C 39.558594 19.554688 37.296875 20.523438 35.164062 21.691406 L 37.824219 26.558594 C 39.644531 25.5625 41.582031 24.734375 43.574219 24.097656 C 55.433594 20.316406 68.25 23.414062 77.023438 32.1875 C 89.902344 45.066406 89.902344 66.019531 77.023438 78.898438 C 64.144531 91.777344 43.1875 91.777344 30.3125 78.898438 C 24.085938 72.671875 20.652344 64.375 20.652344 55.542969 C 20.652344 47.644531 23.402344 40.179688 28.4375 34.234375 L 32.449219 38.246094 C 33.710938 39.507812 33.933594 41.464844 33.007812 42.988281 C 27.351562 52.292969 28.53125 64.613281 36.566406 72.648438 C 41.28125 77.359375 47.472656 79.71875 53.667969 79.71875 C 59.863281 79.71875 66.054688 77.359375 70.769531 72.648438 C 80.199219 63.214844 80.199219 47.871094 70.769531 38.441406 C 63.890625 31.558594 53.605469 29.476562 44.566406 33.132812 L 46.648438 38.277344 C 53.613281 35.453125 61.542969 37.0625 66.847656 42.363281 C 74.117188 49.628906 74.117188 61.457031 66.847656 68.726562 C 59.578125 75.992188 47.753906 75.988281 40.488281 68.726562 C 35.34375 63.582031 33.851562 56.15625 35.996094 49.683594 C 36.898438 46.964844 40.355469 46.152344 42.378906 48.179688 L 45.066406 50.863281 C 43.046875 54.578125 43.601562 59.332031 46.738281 62.472656 C 48.648438 64.382812 51.160156 65.335938 53.667969 65.335938 C 56.175781 65.335938 58.683594 64.382812 60.59375 62.472656 C 64.414062 58.652344 64.414062 52.4375 60.597656 48.617188 L 60.59375 48.617188 C 58.746094 46.765625 56.285156 45.746094 53.667969 45.746094 C 52.003906 45.746094 50.402344 46.164062 48.984375 46.9375 L 29.558594 27.511719 L 33.46875 18.554688 C 33.925781 17.511719 33.695312 16.292969 32.886719 15.484375 L 20.203125 2.800781 C 19.554688 2.148438 18.628906 1.863281 17.726562 2.035156 C 16.824219 2.203125 16.066406 2.808594 15.699219 3.652344 L 11.46875 13.34375 L 1.777344 17.574219 C 0.933594 17.941406 0.328125 18.699219 0.160156 19.601562 C -0.0117188 20.503906 0.273438 21.429688 0.921875 22.078125 L 13.609375 34.765625 C 14.140625 35.296875 14.851562 35.578125 15.570312 35.578125 C 15.945312 35.578125 16.324219 35.5 16.679688 35.347656 L 22.503906 32.804688 C 17.703125 39.359375 15.109375 47.246094 15.105469 55.542969 C 15.105469 65.859375 19.113281 75.546875 26.390625 82.820312 C 33.910156 90.34375 43.789062 94.101562 53.667969 94.101562 C 63.546875 94.101562 73.425781 90.34375 80.945312 82.820312 C 95.988281 67.78125 95.988281 43.304688 80.945312 28.265625 Z M 19.15625 9.597656 L 27.628906 18.070312 L 25.347656 23.300781 L 16.875 14.828125 Z M 7.722656 21.03125 L 12.949219 18.75 L 21.421875 27.222656 L 16.195312 29.503906 Z M 7.722656 21.03125 " fill-opacity="1" fill-rule="nonzero"/></g></svg>