<svg xmlns="http://www.w3.org/2000/svg" xmlns:xlink="http://www.w3.org/1999/xlink" width="48" zoomAndPan="magnify" viewBox="0 0 36 36.000001" height="48" preserveAspectRatio="xMidYMid meet" version="1.0"><defs><clipPath id="24ee328933"><path d="M 0.488281 0 L 35 0 L 35 33.566406 L 0.488281 33.566406 Z M 0.488281 0 " clip-rule="nonzero"/></clipPath></defs><g clip-path="url(#24ee328933)"><path fill="#ff3131" d="M 30.019531 9.640625 C 26.28125 5.902344 20.824219 4.582031 15.769531 6.191406 C 14.917969 6.464844 14.09375 6.816406 13.316406 7.242188 L 14.285156 9.015625 C 14.953125 8.652344 15.65625 8.351562 16.386719 8.121094 C 20.710938 6.742188 25.386719 7.871094 28.589844 11.070312 C 33.289062 15.769531 33.289062 23.417969 28.589844 28.117188 C 23.890625 32.816406 16.246094 32.8125 11.546875 28.117188 C 9.273438 25.84375 8.023438 22.816406 8.023438 19.59375 C 8.023438 16.710938 9.027344 13.988281 10.863281 11.820312 L 12.328125 13.28125 C 12.785156 13.742188 12.867188 14.457031 12.53125 15.011719 C 10.464844 18.40625 10.898438 22.902344 13.828125 25.832031 C 15.546875 27.554688 17.808594 28.414062 20.066406 28.414062 C 22.328125 28.414062 24.585938 27.554688 26.308594 25.832031 C 29.75 22.394531 29.75 16.792969 26.308594 13.351562 C 23.796875 10.84375 20.042969 10.082031 16.746094 11.417969 L 17.507812 13.292969 C 20.046875 12.265625 22.941406 12.851562 24.878906 14.785156 C 27.527344 17.4375 27.527344 21.75 24.878906 24.402344 C 22.222656 27.054688 17.910156 27.054688 15.257812 24.402344 C 13.382812 22.527344 12.839844 19.816406 13.621094 17.453125 C 13.949219 16.464844 15.210938 16.167969 15.949219 16.90625 L 16.929688 17.886719 C 16.191406 19.242188 16.394531 20.976562 17.539062 22.121094 C 18.238281 22.816406 19.152344 23.167969 20.066406 23.167969 C 20.984375 23.167969 21.898438 22.816406 22.59375 22.121094 C 23.988281 20.726562 23.988281 18.460938 22.597656 17.066406 L 22.59375 17.066406 C 21.921875 16.390625 21.023438 16.019531 20.066406 16.019531 C 19.460938 16.019531 18.878906 16.171875 18.359375 16.453125 L 11.273438 9.367188 L 12.699219 6.097656 C 12.863281 5.71875 12.78125 5.273438 12.488281 4.976562 L 7.859375 0.347656 C 7.621094 0.113281 7.285156 0.0078125 6.953125 0.0703125 C 6.625 0.132812 6.347656 0.351562 6.214844 0.660156 L 4.671875 4.195312 L 1.132812 5.742188 C 0.828125 5.875 0.605469 6.152344 0.542969 6.480469 C 0.484375 6.808594 0.585938 7.148438 0.824219 7.382812 L 5.453125 12.011719 C 5.644531 12.207031 5.90625 12.308594 6.167969 12.308594 C 6.304688 12.308594 6.441406 12.28125 6.574219 12.222656 L 8.699219 11.296875 C 6.945312 13.6875 6 16.566406 6 19.59375 C 6 23.359375 7.460938 26.890625 10.113281 29.546875 C 12.859375 32.289062 16.464844 33.664062 20.066406 33.664062 C 23.671875 33.664062 27.277344 32.289062 30.019531 29.546875 C 35.507812 24.058594 35.507812 15.128906 30.019531 9.640625 Z M 7.476562 2.828125 L 10.566406 5.921875 L 9.734375 7.828125 L 6.644531 4.738281 Z M 3.304688 7 L 5.210938 6.167969 L 8.304688 9.261719 L 6.394531 10.09375 Z M 3.304688 7 " fill-opacity="1" fill-rule="nonzero"/></g></svg>